<svg id="eljnQ7i6mRU1" xmlns="http://www.w3.org/2000/svg" xmlns:xlink="http://www.w3.org/1999/xlink" viewBox="0 0 1000 1000" shape-rendering="geometricPrecision" text-rendering="geometricPrecision">
<style><![CDATA[
#eljnQ7i6mRU14_to {animation: eljnQ7i6mRU14_to__to 3000ms linear infinite normal forwards}@keyframes eljnQ7i6mRU14_to__to { 0% {transform: translate(216.479408px,548.312535px)} 50% {transform: translate(171.083258px,522.343186px)} 100% {transform: translate(216.479408px,548.312535px)}} #eljnQ7i6mRU15_to {animation: eljnQ7i6mRU15_to__to 3000ms linear infinite normal forwards}@keyframes eljnQ7i6mRU15_to__to { 0% {transform: translate(86.628763px,470.482579px)} 50% {transform: translate(41.232613px,444.513229px)} 100% {transform: translate(86.628763px,470.482579px)}} #eljnQ7i6mRU16_to {animation: eljnQ7i6mRU16_to__to 3000ms linear infinite normal forwards}@keyframes eljnQ7i6mRU16_to__to { 0% {transform: translate(346.549377px,625.57256px)} 50% {transform: translate(301.153228px,599.603211px)} 100% {transform: translate(346.549377px,625.57256px)}} #eljnQ7i6mRU29_to {animation: eljnQ7i6mRU29_to__to 3000ms linear infinite normal forwards}@keyframes eljnQ7i6mRU29_to__to { 0% {transform: translate(794.986922px,424.571898px);animation-timing-function: cubic-bezier(0.42,0,0.58,1)} 10% {transform: translate(618.988129px,315.851868px)} 90% {transform: translate(618.988129px,315.851868px)} 100% {transform: translate(442.442474px,213.70436px)}} #eljnQ7i6mRU29_ts {animation: eljnQ7i6mRU29_ts__ts 3000ms linear infinite normal forwards}@keyframes eljnQ7i6mRU29_ts__ts { 0% {transform: scale(0.5,0.472232);animation-timing-function: cubic-bezier(0.42,0,0.58,1)} 10% {transform: scale(1,1);animation-timing-function: cubic-bezier(0.42,0,0.58,1)} 90% {transform: scale(1,1);animation-timing-function: cubic-bezier(0.42,0,0.58,1)} 100% {transform: scale(0.41596,0.41596)}} #eljnQ7i6mRU39_to {animation: eljnQ7i6mRU39_to__to 3000ms linear infinite normal forwards}@keyframes eljnQ7i6mRU39_to__to { 0% {transform: translate(688.070007px,452.585007px)} 50% {transform: translate(631.921478px,484.31517px)} 100% {transform: translate(688.072541px,452.585007px)}} #eljnQ7i6mRU42_to {animation: eljnQ7i6mRU42_to__to 3000ms linear infinite normal forwards}@keyframes eljnQ7i6mRU42_to__to { 0% {transform: translate(809.018677px,487.630616px)} 50% {transform: translate(870.902631px,453.187256px)} 100% {transform: translate(809.018677px,487.630616px)}} #eljnQ7i6mRU45_to {animation: eljnQ7i6mRU45_to__to 3000ms linear infinite normal forwards}@keyframes eljnQ7i6mRU45_to__to { 0% {transform: translate(752.098694px,522.050629px)} 50% {transform: translate(813.982648px,487.607269px)} 100% {transform: translate(752.098694px,522.050629px)}} #eljnQ7i6mRU48_to {animation: eljnQ7i6mRU48_to__to 3000ms linear infinite normal forwards}@keyframes eljnQ7i6mRU48_to__to { 0% {transform: translate(639.996806px,593.407959px)} 50% {transform: translate(701.88076px,558.9646px)} 100% {transform: translate(639.996806px,593.407959px)}} #eljnQ7i6mRU51_to {animation: eljnQ7i6mRU51_to__to 3000ms linear infinite normal forwards}@keyframes eljnQ7i6mRU51_to__to { 0% {transform: translate(692.008698px,556.470627px)} 50% {transform: translate(753.892652px,522.027267px)} 100% {transform: translate(692.008698px,556.470627px)}}
]]></style>
<g><path d="M388.08,359.35l270-154.13c2.81-1.6,6.26-1.59,9.06.03L854.48,313.93c6.03,3.5,6.03,12.21,0,15.71L586.61,484.84c-2.81,1.63-6.29,1.63-9.1,0L388.05,375.1c-6.06-3.51-6.03-12.27.05-15.74Z" opacity="0.15" fill="#03312e"/><path d="M58.78,550.28l270-154.13c2.81-1.6,6.26-1.59,9.06.03L525.18,504.86c6.03,3.5,6.03,12.21,0,15.71L257.31,675.77c-2.81,1.63-6.29,1.63-9.1,0L58.75,566.03c-6.06-3.51-6.03-12.27.05-15.74Z" opacity="0.15" fill="#03312e"/><path d="M115.47,270.67L303.6,163.27c1.96-1.12,4.36-1.11,6.31.02l130.53,75.72c4.2,2.44,4.2,8.51,0,10.95L253.79,358.1c-1.96,1.14-4.38,1.14-6.34,0L115.44,281.63c-4.22-2.45-4.2-8.55.03-10.97Z" opacity="0.15" fill="#03312e"/><path d="M221.01,764.32l188.13-107.4c1.96-1.12,4.36-1.11,6.31.02l130.53,75.72c4.2,2.44,4.2,8.51,0,10.95L359.33,851.75c-1.96,1.14-4.38,1.14-6.34,0L220.98,775.28c-4.22-2.45-4.2-8.55.03-10.97Z" opacity="0.15" fill="#03312e"/><path d="M484.25,584.73l270-154.13c2.81-1.6,6.26-1.59,9.06.03L950.65,539.31c6.03,3.5,6.03,12.21,0,15.71L682.78,710.22c-2.81,1.63-6.29,1.63-9.1,0L484.22,600.48c-6.06-3.51-6.03-12.27.05-15.74Z" opacity="0.15" fill="#03312e"/></g><path d="M115.47,251.7L303.6,144.3c1.96-1.12,4.36-1.11,6.31.02l130.53,75.72c4.2,2.44,4.2,8.51,0,10.95L253.79,339.13c-1.96,1.14-4.38,1.14-6.34,0L115.44,262.66c-4.22-2.45-4.2-8.55.03-10.97Z" fill="#03312e"/><path d="M221.01,745.34l188.13-107.4c1.96-1.12,4.36-1.11,6.31.02l130.53,75.72c4.2,2.44,4.2,8.51,0,10.95L359.33,832.77c-1.96,1.14-4.38,1.14-6.34,0L220.98,756.3c-4.22-2.45-4.2-8.55.03-10.97Z" fill="#03312e"/><g><path d="M49.41,530.73l270-154.13c2.81-1.6,6.26-1.59,9.06.03L515.81,485.31c6.03,3.5,6.03,12.21,0,15.71L247.94,656.22c-2.81,1.63-6.29,1.63-9.1,0L49.38,546.48c-6.06-3.51-6.03-12.27.05-15.74Z" fill="#03312e"/><g clip-path="url(#eljnQ7i6mRU23)"><g><g id="eljnQ7i6mRU14_to" transform="translate(216.479408,548.312535)"><path d="M131.609951,528.47l59.859447-33.08c3.099971-1.71,6.859936-1.7,9.939908.03l99.989075,56.18c6.889936,3.87,6.959936,13.76.129999,17.73l-58.969455,34.24c-3.139971,1.82-7.009935,1.84-10.169906.05L131.509952,546.28c-6.929936-3.94-6.869936-13.95.109999-17.81Z" transform="translate(-216.479408,-549.531876)" fill="#037171"/></g><g id="eljnQ7i6mRU15_to" transform="translate(86.628763,470.482579)"><path d="M0.539951,450.64l59.859445-33.08c3.099971-1.71,6.859936-1.7,9.939908.03l99.989072,56.18c6.889936,3.87,6.959936,13.76.129999,17.73l-58.969453,34.24c-3.139971,1.82-7.009935,1.84-10.169906.05L0.439952,468.45c-6.929936-3.94-6.869936-13.95.109999-17.81Z" transform="translate(-85.409422,-471.70192)" fill="#037171"/></g><g id="eljnQ7i6mRU16_to" transform="translate(346.549377,625.57256)"><path d="M261.67996,605.73l59.859549-33.08c3.099976-1.71,6.859948-1.7,9.939925.03l99.989245,56.18c6.889948,3.87,6.959948,13.76.129999,17.73l-58.969555,34.24c-3.139976,1.82-7.009947,1.84-10.169923.05L261.579961,623.54c-6.929948-3.94-6.869948-13.95.109999-17.81Z" transform="translate(-346.549377,-626.791901)" fill="#037171"/></g><path d="M314.07,407.86c4.02,2.32,8.04,4.65,12.05,6.97l28.93,16.73c11.63,6.72,23.25,13.45,34.88,20.17c10.05,5.81,20.1,11.62,30.15,17.44c4.89,2.83,9.74,5.77,14.69,8.5.07.04.14.08.2.12c2.72,1.57,6.69.72,8.21-2.15s.75-6.53-2.15-8.21c-4.02-2.32-8.04-4.65-12.05-6.97l-28.93-16.73c-11.63-6.72-23.25-13.45-34.88-20.17-10.05-5.81-20.1-11.62-30.15-17.44-4.89-2.83-9.74-5.77-14.69-8.5-.07-.04-.14-.08-.2-.12-2.72-1.57-6.69-.72-8.21,2.15s-.75,6.53,2.15,8.21v0Z" fill="#66c7f4"/><path d="M300.83,416.1c4.42,2.55,8.83,5.11,13.25,7.66c10.53,6.09,21.06,12.18,31.58,18.27l38.41,22.21c11.01,6.37,22.02,12.74,33.03,19.1c5.38,3.11,10.71,6.33,16.15,9.34.08.04.15.09.22.13c2.72,1.57,6.69.72,8.21-2.15s.75-6.53-2.15-8.21c-4.42-2.55-8.83-5.11-13.25-7.66-10.53-6.09-21.06-12.18-31.58-18.27-12.8-7.4-25.61-14.81-38.41-22.21-11.01-6.37-22.02-12.74-33.03-19.1-5.38-3.11-10.71-6.33-16.15-9.34-.08-.04-.15-.09-.22-.13-2.72-1.57-6.69-.72-8.21,2.15s-.75,6.53,2.15,8.21v0Z" fill="#66c7f4"/><path d="M265.16,435.71c4.42,2.55,8.83,5.11,13.25,7.66c10.53,6.09,21.06,12.18,31.58,18.27c12.8,7.4,25.61,14.81,38.41,22.21c11.01,6.37,22.02,12.74,33.03,19.1c5.38,3.11,10.71,6.33,16.15,9.34.08.04.15.09.22.13c2.72,1.57,6.69.72,8.21-2.15s.75-6.53-2.15-8.21c-4.42-2.55-8.83-5.11-13.25-7.66-10.53-6.09-21.06-12.18-31.58-18.27-12.8-7.4-25.61-14.81-38.41-22.21-11.01-6.37-22.02-12.74-33.03-19.1-5.38-3.11-10.71-6.33-16.15-9.34-.08-.04-.15-.09-.22-.13-2.72-1.57-6.69-.72-8.21,2.15s-.75,6.53,2.15,8.21v0Z" fill="#66c7f4"/><path d="M249.67,444.57c4.42,2.55,8.83,5.11,13.25,7.66c10.53,6.09,21.06,12.18,31.58,18.27c12.8,7.4,25.61,14.81,38.41,22.21l33.03,19.1c5.38,3.11,10.71,6.33,16.15,9.34.08.04.15.09.22.13c2.72,1.57,6.69.72,8.21-2.15s.75-6.53-2.15-8.21c-4.42-2.55-8.83-5.11-13.25-7.66-10.53-6.09-21.06-12.18-31.58-18.27-12.8-7.4-25.61-14.81-38.41-22.21-11.01-6.37-22.02-12.74-33.03-19.1-5.38-3.11-10.71-6.33-16.15-9.34-.08-.04-.15-.09-.22-.13-2.72-1.57-6.69-.72-8.21,2.15s-.75,6.53,2.15,8.21v0Z" fill="#66c7f4"/><path d="M234.03,453.41c3.88,2.24,7.75,4.48,11.63,6.72l27.69,16.02c11.23,6.5,22.46,12.99,33.7,19.49c9.65,5.58,19.29,11.16,28.94,16.74c4.71,2.72,9.37,5.54,14.13,8.17.07.04.13.08.2.12c2.72,1.57,6.69.72,8.21-2.15s.75-6.53-2.15-8.21c-3.88-2.24-7.75-4.48-11.63-6.72-9.23-5.34-18.46-10.68-27.69-16.02l-33.7-19.49c-9.65-5.58-19.29-11.16-28.94-16.74-4.71-2.72-9.37-5.54-14.13-8.17-.07-.04-.13-.08-.2-.12-2.72-1.57-6.69-.72-8.21,2.15s-.75,6.53,2.15,8.21v0Z" fill="#66c7f4"/><path d="M218.02,462.58c4.42,2.55,8.83,5.11,13.25,7.66c10.53,6.09,21.06,12.18,31.58,18.27c12.8,7.4,25.61,14.81,38.41,22.21c11.01,6.37,22.02,12.74,33.03,19.1c5.38,3.11,10.71,6.33,16.15,9.34.08.04.15.09.22.13c2.72,1.57,6.69.72,8.21-2.15s.75-6.53-2.15-8.21c-4.42-2.55-8.83-5.11-13.25-7.66-10.53-6.09-21.06-12.18-31.58-18.27-12.8-7.4-25.61-14.81-38.41-22.21-11.01-6.37-22.02-12.74-33.03-19.1-5.38-3.11-10.71-6.33-16.15-9.34-.08-.04-.15-.09-.22-.13-2.72-1.57-6.69-.72-8.21,2.15s-.75,6.53,2.15,8.21v0Z" fill="#66c7f4"/></g><clipPath id="eljnQ7i6mRU23"><path d="M49.41,530.73l270-154.13c2.81-1.6,6.26-1.59,9.06.03L515.81,485.31c6.03,3.5,6.03,12.21,0,15.71L247.94,656.22c-2.81,1.63-6.29,1.63-9.1,0L49.38,546.48c-6.06-3.51-6.03-12.27.05-15.74Z" fill="#03312e"/></clipPath></g></g><g><path d="M388.08,332.12l270-154.13c2.81-1.6,6.26-1.59,9.06.03L854.48,286.7c6.03,3.5,6.03,12.21,0,15.71L586.61,457.61c-2.81,1.63-6.29,1.63-9.1,0L388.05,347.87c-6.06-3.51-6.03-12.27.05-15.74Z" fill="#03312e"/><g clip-path="url(#eljnQ7i6mRU34)"><g><g id="eljnQ7i6mRU29_to" transform="translate(794.986922,424.571898)"><g id="eljnQ7i6mRU29_ts" transform="scale(0.5,0.472232)"><g transform="translate(-618.988128,-315.851867)"><path d="M449.06,348.97l120.81,69.95c2.35,1.36,5.24,1.36,7.59,0L788.92,296.95c5.04-2.91,5.06-10.17.04-13.11L667.65,212.78c-2.36-1.38-5.29-1.39-7.65,0L449.04,335.86c-5.03,2.93-5.01,10.2.02,13.11Z" fill="#037171"/><path d="M449.04,335.87l34.32-20.02l135.63,79.14-41.54,23.96c-2.35,1.35-5.24,1.35-7.59,0L449.05,349c-5.04-2.92-5.05-10.18-.02-13.11Z" fill="#66c7f4"/><path d="M474.58,336.23c3.57,2.05,7.14,4.11,10.7,6.16c8.57,4.93,17.13,9.86,25.7,14.8l30.98,17.84c8.99,5.17,17.97,10.35,26.96,15.52c4.33,2.49,8.6,5.13,13.01,7.49.06.03.12.07.19.11c3.35,1.93,6.38-3.25,3.03-5.18-3.57-2.05-7.14-4.11-10.7-6.16-8.57-4.93-17.13-9.86-25.7-14.8l-30.98-17.84c-8.99-5.17-17.97-10.35-26.96-15.52-4.33-2.49-8.6-5.13-13.01-7.49-.06-.03-.12-.07-.19-.11-3.35-1.93-6.38,3.25-3.03,5.18v0Z" fill="#037171"/><path d="M465.09,342.82c2.71,1.56,5.42,3.12,8.14,4.68c6.55,3.77,13.1,7.54,19.66,11.32c7.9,4.55,15.79,9.09,23.69,13.64l20.58,11.85c3.32,1.91,6.6,3.95,9.98,5.74.05.03.1.06.15.08c3.35,1.93,6.38-3.25,3.03-5.18-2.71-1.56-5.42-3.12-8.14-4.68-6.55-3.77-13.1-7.54-19.66-11.32l-23.69-13.64-20.58-11.85c-3.32-1.91-6.6-3.95-9.98-5.74-.05-.03-.1-.06-.15-.08-3.35-1.93-6.38,3.25-3.03,5.18v0Z" fill="#037171"/></g></g></g></g><clipPath id="eljnQ7i6mRU34"><path d="M388.08,332.12l270-154.13c2.81-1.6,6.26-1.59,9.06.03L854.48,286.7c6.03,3.5,6.03,12.21,0,15.71L586.61,457.61c-2.81,1.63-6.29,1.63-9.1,0L388.05,347.87c-6.06-3.51-6.03-12.27.05-15.74Z" fill="#03312e"/></clipPath></g></g><g><path d="M484.25,557.49l270-154.13c2.81-1.6,6.26-1.59,9.06.03L950.65,512.07c6.03,3.5,6.03,12.21,0,15.71L682.78,682.98c-2.81,1.63-6.29,1.63-9.1,0L484.22,573.24c-6.06-3.51-6.03-12.27.05-15.74Z" fill="#03312e"/><path d="M578.62,558.76v0c5.25-3.05,11.74-3.07,17.01-.04l69.3,39.81c11.22,6.45,11.41,22.57.35,29.28l-.13.08c-5.3,3.22-11.94,3.29-17.31.19l-69.17-39.89c-11.32-6.53-11.35-22.87-.04-29.43Z" fill="#66c7f4"/><g id="eljnQ7i6mRU39_to" transform="translate(688.070007,452.585007)"><path d="M641.02,481.26c3.16-1.81,6.32-3.62,9.48-5.43c7.62-4.37,15.25-8.73,22.87-13.1l27.58-15.79c7.98-4.57,15.95-9.14,23.93-13.71c3.85-2.2,7.83-4.27,11.59-6.64.05-.03.11-.06.16-.09c1.68-.96.17-3.55-1.51-2.59-3.16,1.81-6.32,3.62-9.48,5.43l-22.87,13.1c-9.19,5.26-18.38,10.53-27.58,15.79-7.98,4.57-15.95,9.14-23.93,13.71-3.85,2.2-7.83,4.27-11.59,6.64-.05.03-.11.06-.16.09-1.68.96-.17,3.55,1.51,2.59v0Z" transform="translate(-688.070007,-452.585007)" fill="#616691"/></g><g transform="translate(-1.21934 0)" clip-path="url(#eljnQ7i6mRU54)"><g><g id="eljnQ7i6mRU42_to" transform="translate(809.018677,487.630616)"><g transform="translate(-809.018677,-487.630615)"><path d="M716.93,445.61l29.53-15.42c2.11-1.1,4.64-1.05,6.69.15l148.22,85.79c4.57,2.64,4.63,9.21.13,11.95l-27.61,16.77c-2.17,1.32-4.89,1.35-7.09.07L716.66,457.79c-4.73-2.75-4.58-9.63.27-12.16Z" fill="#037171"/><path d="M730.21,446.4l16.46-9.69c1.39-.82,3.12-.8,4.49.04l16.56,10.18c2.86,1.76,2.74,5.96-.22,7.55l-16.46,8.82c-1.31.7-2.89.69-4.19-.04l-16.56-9.31c-2.93-1.65-2.97-5.85-.07-7.55Z" fill="#66c7f4"/></g></g><g id="eljnQ7i6mRU45_to" transform="translate(752.098694,522.050629)"><g transform="translate(-752.098694,-522.050629)"><path d="M660.01,480.03l29.53-15.42c2.11-1.1,4.64-1.05,6.69.15l148.22,85.79c4.57,2.64,4.63,9.21.13,11.95l-27.61,16.77c-2.17,1.32-4.89,1.35-7.09.07L659.74,492.21c-4.73-2.75-4.58-9.63.27-12.16Z" fill="#037171"/><path d="M673.29,480.82l16.46-9.69c1.39-.82,3.12-.8,4.49.04l16.56,10.18c2.86,1.76,2.74,5.96-.22,7.55l-16.46,8.82c-1.31.7-2.89.69-4.19-.04l-16.56-9.31c-2.93-1.65-2.97-5.85-.07-7.55Z" fill="#66c7f4"/></g></g><g id="eljnQ7i6mRU48_to" transform="translate(639.996806,593.407959)"><g transform="translate(-692.008697,-556.470626)"><path d="M599.92,514.45l29.53-15.42c2.11-1.1,4.64-1.05,6.69.15l148.22,85.79c4.57,2.64,4.63,9.21.13,11.95l-27.61,16.77c-2.17,1.32-4.89,1.35-7.09.07L599.65,526.63c-4.73-2.75-4.58-9.63.27-12.16Z" fill="#037171"/><path d="M613.2,515.23l16.46-9.69c1.39-.82,3.12-.8,4.49.04l16.56,10.18c2.86,1.76,2.74,5.96-.22,7.55l-16.46,8.82c-1.31.7-2.89.69-4.19-.04l-16.56-9.31c-2.93-1.65-2.97-5.85-.07-7.55Z" fill="#66c7f4"/></g></g><g id="eljnQ7i6mRU51_to" transform="translate(692.008698,556.470627)"><g transform="translate(-692.008697,-556.470626)"><path d="M599.92,514.45l29.53-15.42c2.11-1.1,4.64-1.05,6.69.15l148.22,85.79c4.57,2.64,4.63,9.21.13,11.95l-27.61,16.77c-2.17,1.32-4.89,1.35-7.09.07L599.65,526.63c-4.73-2.75-4.58-9.63.27-12.16Z" fill="#037171"/><path d="M613.2,515.23l16.46-9.69c1.39-.82,3.12-.8,4.49.04l16.56,10.18c2.86,1.76,2.74,5.96-.22,7.55l-16.46,8.82c-1.31.7-2.89.69-4.19-.04l-16.56-9.31c-2.93-1.65-2.97-5.85-.07-7.55Z" fill="#66c7f4"/></g></g></g><clipPath id="eljnQ7i6mRU54"><polygon points="581.65,521.74 752.4,423.49 922.55,521.74 752.1,620.6 581.65,521.74" fill="none"/></clipPath></g></g></svg>
