<?xml version="1.0" encoding="UTF-8"?>
<svg id="Layer_1" data-name="Layer 1" xmlns="http://www.w3.org/2000/svg" viewBox="0 0 600 600">
  <defs>
    <style>
      .cls-1 {
        fill: #ef476f;
      }

      .cls-2, .cls-3, .cls-4, .cls-5, .cls-6 {
        fill: #118ab2;
      }

      .cls-7, .cls-8, .cls-9, .cls-10, .cls-11 {
        fill: #06d6a0;
      }

      .cls-12 {
        fill: #073b4c;
      }

      .cls-13, .cls-5, .cls-10 {
        opacity: .3;
      }

      .cls-14, .cls-11, .cls-6 {
        opacity: .4;
      }

      .cls-15, .cls-3, .cls-8 {
        opacity: .6;
      }

      .cls-16, .cls-9, .cls-4 {
        opacity: .8;
      }

      .cls-17 {
        fill: #fff;
        font-family: Avenir-Roman, Avenir;
        font-size: 150px;
      }
    </style>
  </defs>
  <g>
    <rect class="cls-12" x=".5" y=".5" width="599" height="599"/>
    <path d="m599,1v598H1V1h598m1-1H0v600h600V0h0Z"/>
  </g>
  <text class="cls-17" transform="translate(26.22 193.05)"><tspan x="0" y="0">todoit</tspan></text>
  <rect class="cls-2" x="31.15" y="251.96" width="409.95" height="49.56" rx="10.53" ry="10.53"/>
  <path class="cls-7" d="m434.74,139.2l9.29-8.96c2.75-2.66,7.13-2.61,9.83.11l25.06,25.26,55.11-81.4c2.25-3.32,6.81-4.08,10.01-1.66l11.38,8.58c3.01,2.27,3.68,6.52,1.52,9.61l-69.71,99.35c-2.5,3.56-7.6,4-10.68.93l-41.89-41.82c-2.77-2.77-2.73-7.27.08-9.99Z"/>
  <path class="cls-7" d="m448.56,279.43l3.52-3.4c1.05-1.01,2.71-.99,3.73.04l9.51,9.58,20.91-30.88c.85-1.26,2.58-1.55,3.8-.63l4.32,3.25c1.14.86,1.4,2.47.57,3.65l-26.45,37.69c-.95,1.35-2.88,1.52-4.05.35l-15.89-15.86c-1.05-1.05-1.04-2.76.03-3.79Z"/>
  <g>
    <path class="cls-1" d="m508.15,264.11c11.78,11.78,23.56,23.56,35.34,35.34,4.56,4.56,11.63-2.51,7.07-7.07-11.78-11.78-23.56-23.56-35.34-35.34-4.56-4.56-11.63,2.51-7.07,7.07h0Z"/>
    <path class="cls-1" d="m543.49,257.04c-11.78,11.78-23.56,23.56-35.34,35.34-4.56,4.56,2.51,11.63,7.07,7.07,11.78-11.78,23.56-23.56,35.34-35.34,4.56-4.56-2.51-11.63-7.07-7.07h0Z"/>
  </g>
  <rect class="cls-4" x="31.15" y="316.76" width="409.95" height="49.56" rx="10.53" ry="10.53"/>
  <path class="cls-9" d="m448.56,344.23l3.52-3.4c1.05-1.01,2.71-.99,3.73.04l9.51,9.58,20.91-30.88c.85-1.26,2.58-1.55,3.8-.63l4.32,3.25c1.14.86,1.4,2.47.57,3.65l-26.45,37.69c-.95,1.35-2.88,1.52-4.05.35l-15.89-15.86c-1.05-1.05-1.04-2.76.03-3.79Z"/>
  <g class="cls-16">
    <path class="cls-1" d="m508.15,328.91c11.78,11.78,23.56,23.56,35.34,35.34,4.56,4.56,11.63-2.51,7.07-7.07-11.78-11.78-23.56-23.56-35.34-35.34-4.56-4.56-11.63,2.51-7.07,7.07h0Z"/>
    <path class="cls-1" d="m543.49,321.84c-11.78,11.78-23.56,23.56-35.34,35.34-4.56,4.56,2.51,11.63,7.07,7.07,11.78-11.78,23.56-23.56,35.34-35.34,4.56-4.56-2.51-11.63-7.07-7.07h0Z"/>
  </g>
  <rect class="cls-3" x="31.15" y="381.56" width="409.95" height="49.56" rx="10.53" ry="10.53"/>
  <path class="cls-8" d="m448.56,409.03l3.52-3.4c1.05-1.01,2.71-.99,3.73.04l9.51,9.58,20.91-30.88c.85-1.26,2.58-1.55,3.8-.63l4.32,3.25c1.14.86,1.4,2.47.57,3.65l-26.45,37.69c-.95,1.35-2.88,1.52-4.05.35l-15.89-15.86c-1.05-1.05-1.04-2.76.03-3.79Z"/>
  <g class="cls-15">
    <path class="cls-1" d="m508.15,393.71c11.78,11.78,23.56,23.56,35.34,35.34,4.56,4.56,11.63-2.51,7.07-7.07-11.78-11.78-23.56-23.56-35.34-35.34-4.56-4.56-11.63,2.51-7.07,7.07h0Z"/>
    <path class="cls-1" d="m543.49,386.64c-11.78,11.78-23.56,23.56-35.34,35.34-4.56,4.56,2.51,11.63,7.07,7.07,11.78-11.78,23.56-23.56,35.34-35.34,4.56-4.56-2.51-11.63-7.07-7.07h0Z"/>
  </g>
  <rect class="cls-6" x="31.15" y="446.36" width="409.95" height="49.56" rx="10.53" ry="10.53"/>
  <path class="cls-11" d="m448.56,473.83l3.52-3.4c1.05-1.01,2.71-.99,3.73.04l9.51,9.58,20.91-30.88c.85-1.26,2.58-1.55,3.8-.63l4.32,3.25c1.14.86,1.4,2.47.57,3.65l-26.45,37.69c-.95,1.35-2.88,1.52-4.05.35l-15.89-15.86c-1.05-1.05-1.04-2.76.03-3.79Z"/>
  <g class="cls-14">
    <path class="cls-1" d="m508.15,458.51c11.78,11.78,23.56,23.56,35.34,35.34,4.56,4.56,11.63-2.51,7.07-7.07-11.78-11.78-23.56-23.56-35.34-35.34-4.56-4.56-11.63,2.51-7.07,7.07h0Z"/>
    <path class="cls-1" d="m543.49,451.44c-11.78,11.78-23.56,23.56-35.34,35.34-4.56,4.56,2.51,11.63,7.07,7.07,11.78-11.78,23.56-23.56,35.34-35.34,4.56-4.56-2.51-11.63-7.07-7.07h0Z"/>
  </g>
  <rect class="cls-5" x="31.15" y="511.16" width="409.95" height="49.56" rx="10.53" ry="10.53"/>
  <path class="cls-10" d="m448.56,538.63l3.52-3.4c1.05-1.01,2.71-.99,3.73.04l9.51,9.58,20.91-30.88c.85-1.26,2.58-1.55,3.8-.63l4.32,3.25c1.14.86,1.4,2.47.57,3.65l-26.45,37.69c-.95,1.35-2.88,1.52-4.05.35l-15.89-15.86c-1.05-1.05-1.04-2.76.03-3.79Z"/>
  <g class="cls-13">
    <path class="cls-1" d="m508.15,523.31c11.78,11.78,23.56,23.56,35.34,35.34,4.56,4.56,11.63-2.51,7.07-7.07-11.78-11.78-23.56-23.56-35.34-35.34-4.56-4.56-11.63,2.51-7.07,7.07h0Z"/>
    <path class="cls-1" d="m543.49,516.24c-11.78,11.78-23.56,23.56-35.34,35.34-4.56,4.56,2.51,11.63,7.07,7.07,11.78-11.78,23.56-23.56,35.34-35.34,4.56-4.56-2.51-11.63-7.07-7.07h0Z"/>
  </g>
</svg>